<svg width="35" height="63" viewBox="0 0 35 63" fill="none" xmlns="http://www.w3.org/2000/svg">
<path d="M5.30667 12.2262C5.52486 12.6629 5.96997 12.9423 6.45872 12.9423C6.94747 12.9423 7.39258 12.6629 7.61077 12.2262L12.795 1.86887C12.9957 1.46715 12.9695 0.995564 12.7339 0.611311C12.4982 0.227059 12.0793 0 11.6342 0H1.29195C0.846844 0 0.427917 0.235792 0.192271 0.611311C-0.0433758 0.995564 -0.060831 1.46715 0.131177 1.86887L5.30667 12.2262ZM9.5483 2.58497L6.46745 8.75922L3.38659 2.58497H9.5483V2.58497ZM6.46745 37.9712C8.18679 37.9712 9.82759 37.29 11.0407 36.0761C12.2539 34.8622 12.9346 33.2117 12.9346 31.5C12.9346 29.7883 12.2539 28.1378 11.0407 26.9239C9.82759 25.71 8.17806 25.0288 6.46745 25.0288C4.75683 25.0288 3.1073 25.71 1.89416 26.9239C0.681019 28.1378 0.000262606 29.7883 0.000262606 31.5C0.000262606 33.2117 0.681019 34.8622 1.89416 36.0761C3.1073 37.29 4.7481 37.9712 6.46745 37.9712V37.9712ZM6.46745 27.6138C7.49731 27.6138 8.48353 28.0243 9.21665 28.7491C9.94105 29.4739 10.3512 30.4695 10.3512 31.5C10.3512 32.5305 9.94105 33.5173 9.21665 34.2509C8.49226 34.9757 7.49731 35.3862 6.46745 35.3862C5.43758 35.3862 4.45136 34.9757 3.71824 34.2509C2.99384 33.5261 2.58364 32.5305 2.58364 31.5C2.58364 30.4695 2.99384 29.4827 3.71824 28.7491C4.44263 28.0243 5.43758 27.6138 6.46745 27.6138ZM1.29195 63H11.6429C12.3586 63 12.9346 62.4236 12.9346 61.7075V51.3502C12.9346 50.634 12.3586 50.0577 11.6429 50.0577H1.29195C0.576287 50.0577 0.000262606 50.634 0.000262606 51.3502V61.7075C0.000262606 62.4236 0.576287 63 1.29195 63V63ZM2.58364 52.6426H10.3512V60.415H2.58364V52.6426V52.6426ZM23.2856 55.2363V32.7925H15.9544C15.2387 32.7925 14.6627 32.2161 14.6627 31.5C14.6627 30.7839 15.2387 30.2075 15.9544 30.2075H23.2856V7.76365H15.9544C15.2387 7.76365 14.6627 7.18728 14.6627 6.47117C14.6627 5.75506 15.2387 5.17868 15.9544 5.17868H24.5773C25.293 5.17868 25.869 5.75506 25.869 6.47117V30.2075H33.2002C33.9159 30.2075 34.4919 30.7839 34.4919 31.5C34.4919 32.2161 33.9159 32.7925 33.2002 32.7925H25.869V56.5288C25.869 57.2449 25.293 57.8213 24.5773 57.8213H15.9544C15.2387 57.8213 14.6627 57.2449 14.6627 56.5288C14.6627 55.8127 15.2387 55.2363 15.9544 55.2363H23.2856V55.2363Z" fill="white"/>
</svg>
